<svg xmlns="http://www.w3.org/2000/svg" viewBox="0 0 800 500">
  <!-- Background -->
  <rect width="800" height="500" fill="#f8f9fa" rx="10" ry="10"/>
  
  <!-- Title -->
  <text x="400" y="40" font-family="Arial" font-size="24" font-weight="bold" text-anchor="middle" fill="#333">F1 Live Bot Architecture</text>
  
  <!-- F1 Producer Container -->
  <rect x="80" y="100" width="160" height="100" rx="10" ry="10" fill="#4285f4" opacity="0.8"/>
  <text x="160" y="145" font-family="Arial" font-size="16" font-weight="bold" text-anchor="middle" fill="white">F1 Producer</text>
  <text x="160" y="170" font-family="Arial" font-size="12" text-anchor="middle" fill="white">Python + FastF1</text>
  
  <!-- RabbitMQ Container -->
  <rect x="320" y="100" width="160" height="100" rx="10" ry="10" fill="#34a853" opacity="0.8"/>
  <text x="400" y="145" font-family="Arial" font-size="16" font-weight="bold" text-anchor="middle" fill="white">RabbitMQ</text>
  <text x="400" y="170" font-family="Arial" font-size="12" text-anchor="middle" fill="white">Message Broker</text>
  
  <!-- Nuclio Container -->
  <rect x="560" y="100" width="160" height="100" rx="10" ry="10" fill="#fbbc05" opacity="0.8"/>
  <text x="640" y="145" font-family="Arial" font-size="16" font-weight="bold" text-anchor="middle" fill="white">Nuclio Function</text>
  <text x="640" y="170" font-family="Arial" font-size="12" text-anchor="middle" fill="white">Serverless Processing</text>
  
  <!-- Docker Network -->
  <rect x="60" y="240" width="680" height="40" rx="5" ry="5" fill="#ea4335" opacity="0.2" stroke="#ea4335" stroke-width="2"/>
  <text x="400" y="265" font-family="Arial" font-size="14" font-weight="bold" text-anchor="middle" fill="#333">Docker Network (nuclio-network)</text>
  
  <!-- APIs -->
  <rect x="80" y="320" width="160" height="80" rx="10" ry="10" fill="#a142f4" opacity="0.6"/>
  <text x="160" y="360" font-family="Arial" font-size="16" font-weight="bold" text-anchor="middle" fill="white">FastF1 API</text>
  <text x="160" y="380" font-family="Arial" font-size="12" text-anchor="middle" fill="white">Race Data Source</text>
  
  <rect x="560" y="320" width="160" height="80" rx="10" ry="10" fill="#a142f4" opacity="0.6"/>
  <text x="640" y="360" font-family="Arial" font-size="16" font-weight="bold" text-anchor="middle" fill="white">Telegram Bot</text>
  <text x="640" y="380" font-family="Arial" font-size="12" text-anchor="middle" fill="white">User Notifications</text>
  
  <!-- External User -->
  <circle cx="640" cy="450" r="30" fill="#ea4335" opacity="0.7"/>
  <text x="640" y="455" font-family="Arial" font-size="12" font-weight="bold" text-anchor="middle" fill="white">User</text>
  
  <!-- Flow Arrows -->
  <!-- Producer to RabbitMQ -->
  <line x1="240" y1="150" x2="320" y2="150" stroke="#333" stroke-width="2"/>
  <polygon points="318,145 328,150 318,155" fill="#333"/>
  
  <!-- RabbitMQ to Nuclio -->
  <line x1="480" y1="150" x2="560" y2="150" stroke="#333" stroke-width="2"/>
  <polygon points="558,145 568,150 558,155" fill="#333"/>
  
  <!-- Nuclio to Telegram API -->
  <line x1="640" y1="200" x2="640" y2="320" stroke="#333" stroke-width="2"/>
  <polygon points="635,318 640,328 645,318" fill="#333"/>
  
  <!-- Telegram API to User -->
  <line x1="640" y1="400" x2="640" y2="420" stroke="#333" stroke-width="2"/>
  <polygon points="635,418 640,428 645,418" fill="#333"/>
  
  <!-- Producer to FastF1 API -->
  <line x1="160" y1="200" x2="160" y2="320" stroke="#333" stroke-width="2"/>
  <polygon points="155,318 160,328 165,318" fill="#333"/>
  
  <!-- Data Flow Labels -->
  <text x="280" y="140" font-family="Arial" font-size="12" text-anchor="middle" fill="#333">1. Race Data</text>
  <text x="520" y="140" font-family="Arial" font-size="12" text-anchor="middle" fill="#333">2. Messages</text>
</svg>
